<svg xmlns="http://www.w3.org/2000/svg" style="width:0; height:0; visibility:hidden; display:none">
<symbol id="ico-add" viewBox="0 0 24 24"><g id="ico/" stroke="none" stroke-width="1" fill-rule="evenodd"> <g id="ico/add/24" fill-rule="nonzero"> <path d="M12,2 C14.6521649,2 17.195704,3.0535684 19.0710678,4.92893219 C20.9464316,6.80429597 22,9.3478351 22,12 C22,17.5228475 17.5228475,22 12,22 C9.3478351,22 6.80429597,20.9464316 4.92893219,19.0710678 C3.0535684,17.195704 2,14.6521649 2,12 C2,9.3478351 3.0535684,6.80429597 4.92893219,4.92893219 C6.80429597,3.0535684 9.3478351,2 12,2 L12,2 Z M12,4 C7.581722,4 4,7.581722 4,12 C4,16.418278 7.581722,20 12,20 C14.1217319,20 16.1565632,19.1571453 17.6568542,17.6568542 C19.1571453,16.1565632 20,14.1217319 20,12 C20,7.581722 16.418278,4 12,4 L12,4 Z M7,11 L17,11 L17,13 L7,13 L7,11 Z M13,7 L13,17 L11,17 L11,7 L13,7 Z" id="Shape"/> </g> </g></symbol>
<symbol id="ico-breadcrumb" viewBox="0 0 24 24"><g id="ico/" stroke="none" stroke-width="1" fill-rule="evenodd" stroke-linecap="square"> <g id="ico/breadcrumb/24" stroke="#979797"> <polyline id="Line" transform="translate(12.000000, 12.000000) rotate(-270.000000) translate(-12.000000, -12.000000) " points="4 16 12 8 20 16"/> </g> </g></symbol>
<symbol id="ico-case-completed" viewBox="0 0 24 24"><g id="ico/" stroke="none" stroke-width="1" fill-rule="evenodd"> <g id="ico/case-completed/24" fill-rule="nonzero"> <polygon id="Shape" points="9.6 14.6 5.4 10.4 4 11.8 9.6 17.4 21.6 5.4 20.2 4"/> <rect id="Rectangle-2" x="3" y="18" width="19" height="1"/> </g> </g></symbol>
<symbol id="ico-check-circle-ot" viewBox="0 0 24 24"><g id="ico/" stroke="none" stroke-width="1" fill-rule="evenodd"> <g id="ico/check-circle-ot/24" fill-rule="nonzero"> <path d="M12,2 C14.6521649,2 17.195704,3.0535684 19.0710678,4.92893219 C20.9464316,6.80429597 22,9.3478351 22,12 C22,17.5228475 17.5228475,22 12,22 C9.3478351,22 6.80429597,20.9464316 4.92893219,19.0710678 C3.0535684,17.195704 2,14.6521649 2,12 C2,9.3478351 3.0535684,6.80429597 4.92893219,4.92893219 C6.80429597,3.0535684 9.3478351,2 12,2 L12,2 Z M12,4 C7.581722,4 4,7.581722 4,12 C4,16.418278 7.581722,20 12,20 C14.1217319,20 16.1565632,19.1571453 17.6568542,17.6568542 C19.1571453,16.1565632 20,14.1217319 20,12 C20,7.581722 16.418278,4 12,4 L12,4 Z M11,16.5 L6.5,12 L7.91,10.59 L11,13.67 L16.59,8.09 L18,9.5 L11,16.5 Z" id="Shape"/> </g> </g></symbol>
<symbol id="ico-check-off" viewBox="0 0 24 24"><g id="ico/" stroke="none" stroke-width="1" fill-rule="evenodd"> <g id="ico/check-off/24" fill-rule="nonzero"> <g id="ico/check" transform="translate(4.000000, 4.000000)"> <path d="M3,1 C1.8954305,1 1,1.8954305 1,3 L1,13 C1,14.1045695 1.8954305,15 3,15 L13,15 C14.1045695,15 15,14.1045695 15,13 L15,3 C15,1.8954305 14.1045695,1 13,1 L3,1 Z M3,0 L13,0 C14.6568542,-3.04359188e-16 16,1.34314575 16,3 L16,13 C16,14.6568542 14.6568542,16 13,16 L3,16 C1.34314575,16 2.02906125e-16,14.6568542 0,13 L0,3 C-2.02906125e-16,1.34314575 1.34314575,3.04359188e-16 3,0 Z" id="Rectangle-8"/> </g> </g> </g></symbol>
<symbol id="ico-check-on" viewBox="0 0 24 24"><g id="ico/" stroke="none" stroke-width="1" fill-rule="evenodd"> <g id="ico/check-on/24" fill-rule="nonzero"> <g id="ico/check" transform="translate(4.000000, 4.000000)"> <path d="M3,1 C1.8954305,1 1,1.8954305 1,3 L1,13 C1,14.1045695 1.8954305,15 3,15 L13,15 C14.1045695,15 15,14.1045695 15,13 L15,3 C15,1.8954305 14.1045695,1 13,1 L3,1 Z M3,0 L13,0 C14.6568542,-3.04359188e-16 16,1.34314575 16,3 L16,13 C16,14.6568542 14.6568542,16 13,16 L3,16 C1.34314575,16 2.02906125e-16,14.6568542 0,13 L0,3 C-2.02906125e-16,1.34314575 1.34314575,3.04359188e-16 3,0 Z" id="Rectangle-8"/> <polygon id="Shape" points="8.09090909 9.85454545 4.27272727 6.03636364 3 7.30909091 8.09090909 12.4 19 1.49090909 17.7272727 0.218181818"/> </g> </g> </g></symbol>
<symbol id="ico-check-some" viewBox="0 0 24 24"><g id="ico/" stroke="none" stroke-width="1" fill-rule="evenodd"> <g id="ico/check-some/24"> <g id="ico/check" transform="translate(4.000000, 4.000000)" fill-rule="nonzero"> <path d="M3,1 C1.8954305,1 1,1.8954305 1,3 L1,13 C1,14.1045695 1.8954305,15 3,15 L13,15 C14.1045695,15 15,14.1045695 15,13 L15,3 C15,1.8954305 14.1045695,1 13,1 L3,1 Z M3,0 L13,0 C14.6568542,-3.04359188e-16 16,1.34314575 16,3 L16,13 C16,14.6568542 14.6568542,16 13,16 L3,16 C1.34314575,16 2.02906125e-16,14.6568542 0,13 L0,3 C-2.02906125e-16,1.34314575 1.34314575,3.04359188e-16 3,0 Z" id="Rectangle-8"/> </g> <path d="M9.43496358,12.1038462 C9.06728918,12.1038462 8.66320026,12.232691 8.2226847,12.4903846 C7.78216915,12.7480782 7.37461165,13.0846133 7,13.5 L7,11.7576923 C7.69372529,10.9192266 8.54005744,10.5 9.53902185,10.5 C10.010755,10.5 10.4425926,10.5538456 10.8345473,10.6615385 C11.2265021,10.7692313 11.7311797,10.9692293 12.3485952,11.2615385 C12.8064539,11.4769242 13.20534,11.6365379 13.5452653,11.7403846 C13.8851907,11.8442313 14.2181739,11.8961538 14.5442248,11.8961538 C14.9188364,11.8961538 15.3281282,11.7730782 15.7721124,11.5269231 C16.2160966,11.280768 16.6253883,10.9384637 17,10.5 L17,12.2307692 C16.2924002,13.0769273 15.4460681,13.5 14.4609781,13.5 C13.9614959,13.5 13.4932384,13.4365391 13.0561915,13.3096154 C12.6191445,13.1826917 12.150887,12.9961551 11.6514048,12.75 C11.1311108,12.5038449 10.7148819,12.3346158 10.4027055,12.2423077 C10.0905291,12.1499995 9.76795172,12.1038462 9.43496358,12.1038462 Z" id="~"/> </g> </g></symbol>
<symbol id="ico-chevron-down" viewBox="0 0 16 16"><g id="ico/" stroke="none" stroke-width="1" fill-rule="evenodd"> <g id="ico/chevron-down/16" fill-rule="nonzero"> <polygon id="Shape" points="3.41 4.58 8 9.17 12.59 4.58 14 6 8 12 2 6"/> </g> </g></symbol>
<symbol id="ico-close" viewBox="0 0 24 24"><g id="ico/" stroke="none" stroke-width="1" fill-rule="evenodd"> <g id="ico/close/24" fill-rule="nonzero"> <polygon id="Shape" points="20 5.61142857 18.3885714 4 12 10.3885714 5.61142857 4 4 5.61142857 10.3885714 12 4 18.3885714 5.61142857 20 12 13.6114286 18.3885714 20 20 18.3885714 13.6114286 12"/> </g> </g></symbol>
<symbol id="ico-dashboard" viewBox="0 0 24 24"><g id="ico/" stroke="none" stroke-width="1" fill-rule="evenodd"> <g id="ico/dashboard/24" fill-rule="nonzero"> <path d="M13,3 L13,9 L21,9 L21,3 L13,3 Z M13,21 L21,21 L21,11 L13,11 L13,21 Z M3,21 L11,21 L11,15 L3,15 L3,21 Z M3,13 L11,13 L11,3 L3,3 L3,13 Z" id="Shape"/> </g> </g></symbol>
<symbol id="ico-delete" viewBox="0 0 24 24"><g id="ico/" stroke="none" stroke-width="1" fill-rule="evenodd"> <g id="ico/delete/24" fill-rule="nonzero"> <polygon id="Shape" points="19 6.41 17.59 5 12 10.59 6.41 5 5 6.41 10.59 12 5 17.59 6.41 19 12 13.41 17.59 19 19 17.59 13.41 12"/> </g> </g></symbol>
<symbol id="ico-done" viewBox="0 0 24 24"><g id="ico/" stroke="none" stroke-width="1" fill-rule="evenodd"> <g id="ico/done/24" fill-rule="nonzero"> <polygon id="Shape" points="8.6 15.6 4.4 11.4 3 12.8 8.6 18.4 20.6 6.4 19.2 5"/> </g> </g></symbol>
<symbol id="ico-drag-handle" viewBox="0 0 24 24"><g id="ico/" stroke="none" stroke-width="1" fill-rule="evenodd"> <g id="ico/drag-handle/24" fill-rule="nonzero"> <g id="Group" transform="translate(8.000000, 4.000000)"> <path d="M1.75,6 C0.7875,6 0,6.7875 0,7.75 C0,8.7125 0.7875,9.5 1.75,9.5 C2.7125,9.5 3.5,8.7125 3.5,7.75 C3.5,6.7875 2.7125,6 1.75,6 Z" id="Shape" transform="translate(1.750000, 7.750000) rotate(-180.000000) translate(-1.750000, -7.750000) "/> <path d="M1.75,12 C0.7875,12 0,12.7875 0,13.75 C0,14.7125 0.7875,15.5 1.75,15.5 C2.7125,15.5 3.5,14.7125 3.5,13.75 C3.5,12.7875 2.7125,12 1.75,12 Z" id="Shape" transform="translate(1.750000, 13.750000) rotate(-180.000000) translate(-1.750000, -13.750000) "/> <path d="M1.75,0 C0.7875,0 0,0.7875 0,1.75 C0,2.7125 0.7875,3.5 1.75,3.5 C2.7125,3.5 3.5,2.7125 3.5,1.75 C3.5,0.7875 2.7125,0 1.75,0 Z" id="Shape" transform="translate(1.750000, 1.750000) rotate(-180.000000) translate(-1.750000, -1.750000) "/> </g> <g id="Group" transform="translate(13.000000, 4.000000)"> <path d="M1.75,6 C0.7875,6 0,6.7875 0,7.75 C0,8.7125 0.7875,9.5 1.75,9.5 C2.7125,9.5 3.5,8.7125 3.5,7.75 C3.5,6.7875 2.7125,6 1.75,6 Z" id="Shape" transform="translate(1.750000, 7.750000) rotate(-180.000000) translate(-1.750000, -7.750000) "/> <path d="M1.75,12 C0.7875,12 0,12.7875 0,13.75 C0,14.7125 0.7875,15.5 1.75,15.5 C2.7125,15.5 3.5,14.7125 3.5,13.75 C3.5,12.7875 2.7125,12 1.75,12 Z" id="Shape" transform="translate(1.750000, 13.750000) rotate(-180.000000) translate(-1.750000, -13.750000) "/> <path d="M1.75,0 C0.7875,0 0,0.7875 0,1.75 C0,2.7125 0.7875,3.5 1.75,3.5 C2.7125,3.5 3.5,2.7125 3.5,1.75 C3.5,0.7875 2.7125,0 1.75,0 Z" id="Shape" transform="translate(1.750000, 1.750000) rotate(-180.000000) translate(-1.750000, -1.750000) "/> </g> </g> </g></symbol>
<symbol id="ico-filter" viewBox="0 0 24 24"><g id="ico/" stroke="none" stroke-width="1" fill-rule="evenodd"> <g id="ico/filter/24" fill-rule="nonzero"> <path d="M10,18 L14,18 L14,16 L10,16 L10,18 Z M3,6 L3,8 L21,8 L21,6 L3,6 Z M6,13 L18,13 L18,11 L6,11 L6,13 Z" id="Shape"/> </g> </g></symbol>
<symbol id="ico-folder" viewBox="0 0 24 24"><g id="ico/" stroke="none" stroke-width="1" fill-rule="evenodd"> <g id="ico/folder/24" fill-rule="nonzero"> <path d="M10,4 L4,4 C2.89,4 2,4.89 2,6 L2,18 C2,19.1045695 2.8954305,20 4,20 L20,20 C21.1045695,20 22,19.1045695 22,18 L22,8 C22,6.89 21.1,6 20,6 L12,6 L10,4 Z" id="Shape"/> </g> </g></symbol>
<symbol id="ico-home" viewBox="0 0 24 24"><g id="ico/" stroke="none" stroke-width="1" fill-rule="evenodd"> <g id="ico/home/24" fill-rule="nonzero"> <polygon id="Shape" points="10 20 10 14 14 14 14 20 19 20 19 12 22 12 12 3 2 12 5 12 5 20"/> </g> </g></symbol>
<symbol id="ico-loading" viewBox="0 0 24 24"><g id="ico/" stroke="none" stroke-width="1" fill-rule="evenodd"> <g id="ico/loading/24" fill-rule="nonzero"> <path d="M13,22 C11.6446461,22 10.3332123,21.7335753 9.11107078,21.2221416 C7.91107078,20.7110708 6.8446461,20 5.93321234,19.0889292 C5.02214156,18.1778584 4.28892922,17.1110708 3.8,15.9114338 C3.26678766,14.6667877 3,13.3557169 3,12 C3,10.8446461 3.93321234,9.88892922 5.11107078,9.88892922 C6.28892922,9.88892922 7.22250454,10.8221416 7.22250454,12 C7.22250454,12.7778584 7.37785844,13.5335753 7.66678766,14.2446461 C7.95571688,14.9332123 8.37785844,15.5557169 8.91107078,16.0889292 C9.4446461,16.6225045 10.0667877,17.0446461 10.7557169,17.3335753 C11.4667877,17.6446461 12.2221416,17.7778584 13,17.7778584 C13.7778584,17.7778584 14.5335753,17.6221416 15.2446461,17.3335753 C15.9335753,17.0446461 16.5553539,16.6225045 17.0889292,16.0889292 C17.6221416,15.5557169 18.0442831,14.9332123 18.3332123,14.2446461 C18.6446461,13.5335753 18.7778584,12.7778584 18.7778584,12 C18.7778584,11.2225045 18.6221416,10.4667877 18.3332123,9.75571688 C18.0442831,9.06678766 17.6221416,8.44428312 17.0889292,7.91143376 C16.5553539,7.37785844 15.9335753,6.95571688 15.2446461,6.66678766 C14.5335753,6.3553539 13.7778584,6.22214156 13,6.22214156 C11.8442831,6.22214156 10.8889292,5.28892922 10.8889292,4.11107078 C10.8889292,2.93357532 11.8442831,2 13,2 C14.3557169,2 15.6667877,2.26678766 16.8889292,2.77785844 C18.0889292,3.28892922 19.1553539,4 20.0667877,4.91107078 C20.9778584,5.82250454 21.7110708,6.88892922 22.2,8.08892922 C22.7332123,9.33357532 23,10.6446461 23,12 C23,13.3557169 22.7332123,14.6667877 22.2221416,15.8889292 C21.7110708,17.0889292 21,18.1557169 20.0889292,19.0667877 C19.1778584,19.9778584 18.1110708,20.7110708 16.9110708,21.2 C15.6667877,21.7335753 14.3557169,22 13,22" id="Fill-1"/> </g> </g></symbol>
<symbol id="ico-lock-ot" viewBox="0 0 24 24"><g id="ico/" stroke="none" stroke-width="1" fill-rule="evenodd"> <g id="ico/lock-ot/24" fill-rule="nonzero"> <path d="M12.5,16.7142857 C11.598125,16.7142857 10.875,15.9428571 10.875,15 C10.875,14.0485714 11.598125,13.2857143 12.5,13.2857143 C13.3974627,13.2857143 14.125,14.0532261 14.125,15 C14.125,15.9467739 13.3974627,16.7142857 12.5,16.7142857 L12.5,16.7142857 Z M17.375,19.2857143 L17.375,10.7142857 L7.625,10.7142857 L7.625,19.2857143 L17.375,19.2857143 L17.375,19.2857143 Z M17.375,9 C18.2724627,9 19,9.76751186 19,10.7142857 L19,19.2857143 C19,20.2324881 18.2724627,21 17.375,21 L7.625,21 C6.723125,21 6,20.2285714 6,19.2857143 L6,10.7142857 C6,9.76285714 6.723125,9 7.625,9 L8.4375,9 L8.4375,7.28571429 C8.4375,4.91877964 10.2563432,3 12.5,3 C13.577442,3 14.6107548,3.45152932 15.3726213,4.25525665 C16.1344878,5.05898399 16.5625,6.14907219 16.5625,7.28571429 L16.5625,9 L17.375,9 L17.375,9 Z M12.5,4.71428571 C11.1538059,4.71428571 10.0625,5.8655535 10.0625,7.28571429 L10.0625,9 L14.9375,9 L14.9375,7.28571429 C14.9375,5.8655535 13.8461941,4.71428571 12.5,4.71428571 Z" id="Shape"/> </g> </g></symbol>
<symbol id="ico-menu" viewBox="0 0 24 24"><g id="ico/" stroke="none" stroke-width="1" fill-rule="evenodd"> <g id="ico/menu/24" fill-rule="nonzero"> <path d="M3,6 L21,6 L21,8 L3,8 L3,6 L3,6 Z M3,11 L21,11 L21,13 L3,13 L3,11 L3,11 Z M3,16 L21,16 L21,18 L3,18 L3,16 Z" id="Shape"/> </g> </g></symbol>
<symbol id="ico-more" viewBox="0 0 24 24"><g id="ico/" stroke="none" stroke-width="1" fill-rule="evenodd"> <g id="ico/more/24" fill-rule="nonzero"> <path d="M12.5,7 C13.875,7 15,5.875 15,4.5 C15,3.125 13.875,2 12.5,2 C11.125,2 10,3.125 10,4.5 C10,5.875 11.125,7 12.5,7 Z M12.5,9.5 C11.125,9.5 10,10.625 10,12 C10,13.375 11.125,14.5 12.5,14.5 C13.875,14.5 15,13.375 15,12 C15,10.625 13.875,9.5 12.5,9.5 Z M12.5,17 C11.125,17 10,18.125 10,19.5 C10,20.875 11.125,22 12.5,22 C13.875,22 15,20.875 15,19.5 C15,18.125 13.875,17 12.5,17 Z" id="Shape" transform="translate(12.500000, 12.000000) rotate(-270.000000) translate(-12.500000, -12.000000) "/> </g> </g></symbol>
<symbol id="ico-process-downloading-ot" viewBox="0 0 24 24"><g id="ico/" stroke="none" stroke-width="1" fill-rule="evenodd"> <g id="ico/process-downloading-ot/24" fill-rule="nonzero"> <path d="M12,2 C14.6521649,2 17.195704,3.0535684 19.0710678,4.92893219 C20.9464316,6.80429597 22,9.3478351 22,12 C22,17.5228475 17.5228475,22 12,22 C9.3478351,22 6.80429597,20.9464316 4.92893219,19.0710678 C3.0535684,17.195704 2,14.6521649 2,12 C2,9.3478351 3.0535684,6.80429597 4.92893219,4.92893219 C6.80429597,3.0535684 9.3478351,2 12,2 L12,2 Z M12,4 C7.581722,4 4,7.581722 4,12 C4,16.418278 7.581722,20 12,20 C14.1217319,20 16.1565632,19.1571453 17.6568542,17.6568542 C19.1571453,16.1565632 20,14.1217319 20,12 C20,7.581722 16.418278,4 12,4 L12,4 Z M8,11.5555556 L10.4,11.5555556 L10.4,8 L13.6,8 L13.6,11.5555556 L16,11.5555556 L12,16 L8,11.5555556 Z" id="Shape"/> </g> </g></symbol>
<symbol id="ico-search" viewBox="0 0 24 24"><g id="ico/" stroke="none" stroke-width="1" fill-rule="evenodd"> <g id="ico/search/24"> <path d="M15.5029488,14.1817692 L14.8217156,14.1817692 L14.5739944,13.9546915 C15.0006274,13.4454843 15.3378001,12.8743551 15.5855225,12.2412867 C15.8332449,11.6082183 15.9571043,10.9338729 15.9571043,10.2182304 C15.9571043,9.43377612 15.8057206,8.69406057 15.5029488,7.99906158 C15.200177,7.30406259 14.790753,6.698528 14.2746646,6.18243964 C13.7585763,5.66635128 13.1530417,5.25692732 12.4580427,4.95415548 C11.7630437,4.65138365 11.0164471,4.5 10.2182304,4.5 C9.43377612,4.5 8.69406057,4.65138365 7.99906158,4.95415548 C7.30406259,5.25692732 6.698528,5.66635128 6.18243964,6.18243964 C5.66635128,6.698528 5.25692732,7.30406259 4.95415548,7.99906158 C4.65138365,8.69406057 4.5,9.43377612 4.5,10.2182304 C4.5,11.0164471 4.65138365,11.7630437 4.95415548,12.4580427 C5.25692732,13.1530417 5.66635128,13.7585763 6.18243964,14.2746646 C6.698528,14.790753 7.30406259,15.200177 7.99906158,15.5029488 C8.69406057,15.8057206 9.43377612,15.9571043 10.2182304,15.9571043 C10.9338729,15.9571043 11.6082183,15.8332449 12.2412867,15.5855225 C12.8743551,15.3378001 13.4454843,15.0006274 13.9546915,14.5739944 L14.1817692,14.8217156 L14.1817692,15.5029488 L18.5994635,19.8999996 L19.8999996,18.5994635 L15.5029488,14.1817692 Z M10.2182304,14.1817692 C9.13100428,14.1817692 8.19861863,13.796429 7.4210455,13.0257371 C6.64347238,12.2550451 6.25469165,11.3192189 6.25469165,10.2182304 C6.25469165,9.13100428 6.64347238,8.19861863 7.4210455,7.4210455 C8.19861863,6.64347238 9.13100428,6.25469165 10.2182304,6.25469165 C11.3192189,6.25469165 12.2550451,6.64347238 13.0257371,7.4210455 C13.796429,8.19861863 14.1817692,9.13100428 14.1817692,10.2182304 C14.1817692,11.3192189 13.796429,12.2550451 13.0257371,13.0257371 C12.2550451,13.796429 11.3192189,14.1817692 10.2182304,14.1817692 L10.2182304,14.1817692 Z" id="Shape"/> </g> </g></symbol>
<symbol id="ico-settings" viewBox="0 0 24 24"><g id="ico/" stroke="none" stroke-width="1" fill-rule="evenodd"> <g id="ico/settings/24" fill-rule="nonzero"> <path d="M11.7293316,15.5 C9.79633498,15.5 8.2293316,13.9329966 8.2293316,12 C8.2293316,10.0670034 9.79633498,8.5 11.7293316,8.5 C13.6623282,8.5 15.2293316,10.0670034 15.2293316,12 C15.2293316,13.9329966 13.6623282,15.5 11.7293316,15.5 L11.7293316,15.5 Z M19.1593316,12.97 C19.1993316,12.65 19.2293316,12.33 19.2293316,12 C19.2293316,11.67 19.1993316,11.34 19.1593316,11 L21.2693316,9.37 C21.4593316,9.22 21.5093316,8.95 21.3893316,8.73 L19.3893316,5.27 C19.2693316,5.05 18.9993316,4.96 18.7793316,5.05 L16.2893316,6.05 C15.7693316,5.66 15.2293316,5.32 14.5993316,5.07 L14.2293316,2.42 C14.1893316,2.18 13.9793316,2 13.7293316,2 L9.7293316,2 C9.4793316,2 9.2693316,2.18 9.2293316,2.42 L8.8593316,5.07 C8.2293316,5.32 7.6893316,5.66 7.1693316,6.05 L4.6793316,5.05 C4.4593316,4.96 4.1893316,5.05 4.0693316,5.27 L2.0693316,8.73 C1.9393316,8.95 1.9993316,9.22 2.1893316,9.37 L4.2993316,11 C4.2593316,11.34 4.2293316,11.67 4.2293316,12 C4.2293316,12.33 4.2593316,12.65 4.2993316,12.97 L2.1893316,14.63 C1.9993316,14.78 1.9393316,15.05 2.0693316,15.27 L4.0693316,18.73 C4.1893316,18.95 4.4593316,19.03 4.6793316,18.95 L7.1693316,17.94 C7.6893316,18.34 8.2293316,18.68 8.8593316,18.93 L9.2293316,21.58 C9.2693316,21.82 9.4793316,22 9.7293316,22 L13.7293316,22 C13.9793316,22 14.1893316,21.82 14.2293316,21.58 L14.5993316,18.93 C15.2293316,18.67 15.7693316,18.34 16.2893316,17.94 L18.7793316,18.95 C18.9993316,19.03 19.2693316,18.95 19.3893316,18.73 L21.3893316,15.27 C21.5093316,15.05 21.4593316,14.78 21.2693316,14.63 L19.1593316,12.97 Z" id="Shape"/> </g> </g></symbol>
<symbol id="ico-share" viewBox="0 0 24 24"><g id="ico/" stroke="none" stroke-width="1" fill-rule="evenodd"> <g id="ico/share/24" fill-rule="nonzero"> <path d="M18,16.08 C17.24,16.08 16.56,16.38 16.04,16.85 L8.91,12.7 C8.96,12.47 9,12.24 9,12 C9,11.76 8.96,11.53 8.91,11.3 L15.96,7.19 C16.5,7.69 17.21,8 18,8 C19.66,8 21,6.66 21,5 C21,3.34 19.66,2 18,2 C16.34,2 15,3.34 15,5 C15,5.24 15.04,5.47 15.09,5.7 L8.04,9.81 C7.5,9.31 6.79,9 6,9 C4.34,9 3,10.34 3,12 C3,13.66 4.34,15 6,15 C6.79,15 7.5,14.69 8.04,14.19 L15.16,18.35 C15.11,18.56 15.08,18.78 15.08,19 C15.08,20.61 16.39,21.92 18,21.92 C19.61,21.92 20.92,20.61 20.92,19 C20.92,17.39 19.61,16.08 18,16.08 Z" id="Shape"/> </g> </g></symbol>
<symbol id="ico-user-ot" viewBox="0 0 24 24"><g id="ico/" stroke="none" stroke-width="1" fill-rule="evenodd"> <g id="ico/user-ot/24" fill-rule="nonzero"> <path d="M12,13 C9.33,13 4,14.33 4,17 L4,20 L20,20 L20,17 C20,14.33 14.67,13 12,13 L12,13 Z M12,4 C9.790861,4 8,5.790861 8,8 C8,10.209139 9.790861,12 12,12 C14.209139,12 16,10.209139 16,8 C16,5.790861 14.209139,4 12,4 L12,4 Z M12,14.9 C14.97,14.9 18.1,16.36 18.1,17 L18.1,18.1 L5.9,18.1 L5.9,17 C5.9,16.36 9,14.9 12,14.9 L12,14.9 Z M12,5.9 C13.159798,5.9 14.1,6.84020203 14.1,8 C14.1,9.15979797 13.159798,10.1 12,10.1 C10.840202,10.1 9.9,9.15979797 9.9,8 C9.9,6.84020203 10.840202,5.9 12,5.9 L12,5.9 Z" id="Shape"/> </g> </g></symbol>
<symbol id="ico-user" viewBox="0 0 24 24"><g id="ico/" stroke="none" stroke-width="1" fill-rule="evenodd"> <g id="ico/user/24"> <path d="M12,4 C14.209139,4 16,5.790861 16,8 C16,10.209139 14.209139,12 12,12 C9.790861,12 8,10.209139 8,8 C8,5.790861 9.790861,4 12,4 L12,4 Z M12,14 C16.42,14 20,15.79 20,18 L20,20 L4,20 L4,18 C4,15.79 7.58,14 12,14 L12,14 Z" id="Shape"/> </g> </g></symbol>
</svg>