<svg xmlns="http://www.w3.org/2000/svg" style="width:0; height:0; visibility:hidden; display:none">
<symbol id="ico-add" viewBox="0 0 24 24"><g id="1---Elements" stroke="none" stroke-width="1" fill-rule="evenodd"> <g id="ico/add" fill-rule="nonzero"> <path d="M11.99,2 C6.47,2 2,6.48 2,12 C2,17.52 6.47,22 11.99,22 C17.52,22 22,17.52 22,12 C22,6.48 17.52,2 11.99,2 Z M12,20 C7.58,20 4,16.42 4,12 C4,7.58 7.58,4 12,4 C16.42,4 20,7.58 20,12 C20,16.42 16.42,20 12,20 Z M11,7 L13,7 L13,17 L11,17 L11,7 Z M7,13 L7,11 L17,11 L17,13 L7,13 Z" id="Shape"/> </g> </g></symbol>
<symbol id="ico-arrow-down" viewBox="0 0 16 16"><g id="1---Elements" stroke="none" stroke-width="1" fill-rule="evenodd"> <g id="ico/arrow/down" fill-rule="nonzero"> <path d="M8,1.5 C8.51283584,1.5 8.93550716,1.88604019 8.99327227,2.38337887 L9,2.5 L9,10.301 L10.2928932,9.00890237 C10.6533772,8.64841841 11.2206082,8.62068887 11.6128994,8.92571376 L11.7071068,9.00890237 C12.0675907,9.36938633 12.0953203,9.93661739 11.7902954,10.3289086 L11.7071068,10.4231159 L8,14.1302227 L4.29289322,10.4231159 C3.90236893,10.0325916 3.90236893,9.39942666 4.29289322,9.00890237 C4.65337718,8.64841841 5.22060824,8.62068887 5.61289944,8.92571376 L5.70710678,9.00890237 L7,10.301 L7,2.5 C7,1.94771525 7.44771525,1.5 8,1.5 Z" id="Line-3"/> </g> </g></symbol>
<symbol id="ico-arrow-up" viewBox="0 0 16 16"><g id="1---Elements" stroke="none" stroke-width="1" fill-rule="evenodd"> <g id="ico/arrow/up" fill-rule="nonzero"> <path d="M8,1.5 C8.51283584,1.5 8.93550716,1.88604019 8.99327227,2.38337887 L9,2.5 L9,10.301 L10.2928932,9.00890237 C10.6533772,8.64841841 11.2206082,8.62068887 11.6128994,8.92571376 L11.7071068,9.00890237 C12.0675907,9.36938633 12.0953203,9.93661739 11.7902954,10.3289086 L11.7071068,10.4231159 L8,14.1302227 L4.29289322,10.4231159 C3.90236893,10.0325916 3.90236893,9.39942666 4.29289322,9.00890237 C4.65337718,8.64841841 5.22060824,8.62068887 5.61289944,8.92571376 L5.70710678,9.00890237 L7,10.301 L7,2.5 C7,1.94771525 7.44771525,1.5 8,1.5 Z" id="Line-3" transform="translate(8.000000, 7.815111) rotate(-180.000000) translate(-8.000000, -7.815111) "/> </g> </g></symbol>
<symbol id="ico-big-plus" viewBox="0 0 24 24"><g id="1---Elements" stroke="none" stroke-width="1" fill-rule="evenodd"> <g id="ico/big-plus"> <rect id="Rectangle-4" x="11" y="0" width="1" height="24"/> <rect id="Rectangle-4" transform="translate(12.000000, 11.500000) rotate(-270.000000) translate(-12.000000, -11.500000) " x="11.5" y="-0.5" width="1" height="24"/> </g> </g></symbol>
<symbol id="ico-bullets" viewBox="0 0 24 24"><g id="1---Elements" stroke="none" stroke-width="1" fill-rule="evenodd"> <g id="ico/bullets" fill-rule="nonzero"> <path d="M21,17 L21,20 L8,20 L8,17 L21,17 Z M4.5,17 C5.32842712,17 6,17.6715729 6,18.5 C6,19.3284271 5.32842712,20 4.5,20 C3.67157288,20 3,19.3284271 3,18.5 C3,17.6715729 3.67157288,17 4.5,17 Z M21,10 L21,13 L13,13 L13,10 L21,10 Z M9.5,10 C10.3284271,10 11,10.6715729 11,11.5 C11,12.3284271 10.3284271,13 9.5,13 C8.67157288,13 8,12.3284271 8,11.5 C8,10.6715729 8.67157288,10 9.5,10 Z M21,3 L21,6 L8,6 L8,3 L21,3 Z M4.5,3 C5.32842712,3 6,3.67157288 6,4.5 C6,5.32842712 5.32842712,6 4.5,6 C3.67157288,6 3,5.32842712 3,4.5 C3,3.67157288 3.67157288,3 4.5,3 Z" id="Rectangle-Copy-3"/> </g> </g></symbol>
<symbol id="ico-business" viewBox="0 0 24 24"><g id="1---Elements" stroke="none" stroke-width="1" fill-rule="evenodd"> <g id="ico/business" fill-rule="nonzero"> <path d="M12,7 L12,3 L2,3 L2,21 L22,21 L22,7 L12,7 Z M6,19 L4,19 L4,17 L6,17 L6,19 Z M6,15 L4,15 L4,13 L6,13 L6,15 Z M6,11 L4,11 L4,9 L6,9 L6,11 Z M6,7 L4,7 L4,5 L6,5 L6,7 Z M10,19 L8,19 L8,17 L10,17 L10,19 Z M10,15 L8,15 L8,13 L10,13 L10,15 Z M10,11 L8,11 L8,9 L10,9 L10,11 Z M10,7 L8,7 L8,5 L10,5 L10,7 Z M20,19 L12,19 L12,17 L14,17 L14,15 L12,15 L12,13 L14,13 L14,11 L12,11 L12,9 L20,9 L20,19 Z M18,11 L16,11 L16,13 L18,13 L18,11 Z M18,15 L16,15 L16,17 L18,17 L18,15 Z" id="Shape"/> </g> </g></symbol>
<symbol id="ico-c-down" viewBox="0 0 16 16"><g id="1---Elements" stroke="none" stroke-width="1" fill-rule="evenodd"> <g id="ico/c-down" fill-rule="nonzero"> <polygon id="Shape" points="3.41 5 8 9.59 12.59 5 14 6.42 8 12.42 2 6.42"/> </g> </g></symbol>
<symbol id="ico-c-left" viewBox="0 0 16 16"><g id="1---Elements" stroke="none" stroke-width="1" fill-rule="evenodd"> <g id="ico/c-left"> <polygon id="Shape" transform="translate(8.500000, 8.000000) scale(-1, 1) rotate(-90.000000) translate(-8.500000, -8.000000) " points="3.91 4.5 8.5 8.83018868 13.09 4.5 14.5 5.83962264 8.5 11.5 2.5 5.83962264"/> </g> </g></symbol>
<symbol id="ico-c-right" viewBox="0 0 16 16"><g id="1---Elements" stroke="none" stroke-width="1" fill-rule="evenodd"> <g id="ico/c-right"> <polygon id="Shape" transform="translate(8.500000, 8.000000) rotate(-90.000000) translate(-8.500000, -8.000000) " points="3.91 4.5 8.5 8.83018868 13.09 4.5 14.5 5.83962264 8.5 11.5 2.5 5.83962264"/> </g> </g></symbol>
<symbol id="ico-check-off" viewBox="0 0 24 24"><g id="1---Elements" stroke="none" stroke-width="1" fill-rule="evenodd"> <g id="ico/check-off" fill-rule="nonzero"> <path d="M7,5 C5.8954305,5 5,5.8954305 5,7 L5,17 C5,18.1045695 5.8954305,19 7,19 L17,19 C18.1045695,19 19,18.1045695 19,17 L19,7 C19,5.8954305 18.1045695,5 17,5 L7,5 Z M7,4 L17,4 C18.6568542,4 20,5.34314575 20,7 L20,17 C20,18.6568542 18.6568542,20 17,20 L7,20 C5.34314575,20 4,18.6568542 4,17 L4,7 C4,5.34314575 5.34314575,4 7,4 Z" id="Rectangle-8"/> </g> </g></symbol>
<symbol id="ico-check-on" viewBox="0 0 24 24"><g id="1---Elements" stroke="none" stroke-width="1" fill-rule="evenodd"> <g id="ico/check-on" fill-rule="nonzero"> <path d="M17,4 C18.3384276,4 19.4721412,4.87648458 19.8584762,6.08678903 L21.7272727,4.21818182 L23,5.49090909 L20,8.49 L20,17 C20,18.6568542 18.6568542,20 17,20 L7,20 C5.34314575,20 4,18.6568542 4,17 L4,7 C4,5.34314575 5.34314575,4 7,4 L17,4 Z M17,5 L7,5 C5.8954305,5 5,5.8954305 5,7 L5,17 C5,18.1045695 5.8954305,19 7,19 L17,19 C18.1045695,19 19,18.1045695 19,17 L19,9.49 L12.0909091,16.4 L7,11.3090909 L8.27272727,10.0363636 L12.0909091,13.8545455 L18.998,6.947 L18.9945143,6.85073766 C18.9181651,5.81587779 18.0543618,5 17,5 Z" id="Rectangle-8"/> </g> </g></symbol>
<symbol id="ico-check-some" viewBox="0 0 24 24"><g id="1---Elements" stroke="none" stroke-width="1" fill-rule="evenodd"> <g id="ico/check-some"> <g filter="url(#filter-1)" id="ico/check"> <g transform="translate(4.000000, 4.000000)"> <path d="M3,1 C1.8954305,1 1,1.8954305 1,3 L1,13 C1,14.1045695 1.8954305,15 3,15 L13,15 C14.1045695,15 15,14.1045695 15,13 L15,3 C15,1.8954305 14.1045695,1 13,1 L3,1 Z M3,0 L13,0 C14.6568542,0 16,1.34314575 16,3 L16,13 C16,14.6568542 14.6568542,16 13,16 L3,16 C1.34314575,16 0,14.6568542 0,13 L0,3 C0,1.34314575 1.34314575,0 3,0 Z" id="Rectangle-8" fill-rule="nonzero"/> </g> </g> <path d="M9.43496358,12.1038462 C9.06728918,12.1038462 8.66320026,12.232691 8.2226847,12.4903846 C7.78216915,12.7480782 7.37461165,13.0846133 7,13.5 L7,11.7576923 C7.69372529,10.9192266 8.54005744,10.5 9.53902185,10.5 C10.010755,10.5 10.4425926,10.5538456 10.8345473,10.6615385 C11.2265021,10.7692313 11.7311797,10.9692293 12.3485952,11.2615385 C12.8064539,11.4769242 13.20534,11.6365379 13.5452653,11.7403846 C13.8851907,11.8442313 14.2181739,11.8961538 14.5442248,11.8961538 C14.9188364,11.8961538 15.3281282,11.7730782 15.7721124,11.5269231 C16.2160966,11.280768 16.6253883,10.9384637 17,10.5 L17,12.2307692 C16.2924002,13.0769273 15.4460681,13.5 14.4609781,13.5 C13.9614959,13.5 13.4932384,13.4365391 13.0561915,13.3096154 C12.6191445,13.1826917 12.150887,12.9961551 11.6514048,12.75 C11.1311108,12.5038449 10.7148819,12.3346158 10.4027055,12.2423077 C10.0905291,12.1499995 9.76795172,12.1038462 9.43496358,12.1038462 Z" id="~"/> </g> </g></symbol>
<symbol id="ico-close" viewBox="0 0 24 24"><g id="1---Elements" stroke="none" stroke-width="1" fill-rule="evenodd"> <g id="ico/close" fill-rule="nonzero"> <polygon id="Shape" points="20 5.61142857 18.3885714 4 12 10.3885714 5.61142857 4 4 5.61142857 10.3885714 12 4 18.3885714 5.61142857 20 12 13.6114286 18.3885714 20 20 18.3885714 13.6114286 12"/> </g> </g></symbol>
<symbol id="ico-columns" viewBox="0 0 24 24"><g id="1---Elements" stroke="none" stroke-width="1" fill-rule="evenodd"> <g id="outline-view_agenda-24px" filter="url(#filter-1)"> <g transform="translate(3.000000, 3.000000)"> <path d="M16.1052632,2 L16.1052632,6 L1.89473684,6 L1.89473684,2 L16.1052632,2 L16.1052632,2 Z M16.1052632,12 L16.1052632,16 L1.89473684,16 L1.89473684,12 L16.1052632,12 L16.1052632,12 Z M17.0526316,0 L0.947368421,0 C0.426315789,0 -1.77635684e-15,0.45 -1.77635684e-15,1 L-1.77635684e-15,7 C-1.77635684e-15,7.55 0.426315789,8 0.947368421,8 L17.0526316,8 C17.5736842,8 18,7.55 18,7 L18,1 C18,0.45 17.5736842,0 17.0526316,0 Z M17.0526316,10 L0.947368421,10 C0.426315789,10 -1.77635684e-15,10.45 -1.77635684e-15,11 L-1.77635684e-15,17 C-1.77635684e-15,17.55 0.426315789,18 0.947368421,18 L17.0526316,18 C17.5736842,18 18,17.55 18,17 L18,11 C18,10.45 17.5736842,10 17.0526316,10 Z" id="Shape" fill-rule="nonzero" transform="translate(9.000000, 9.000000) rotate(-270.000000) translate(-9.000000, -9.000000) "/> </g> </g> </g></symbol>
<symbol id="ico-date" viewBox="0 0 24 24"><g id="1---Elements" stroke="none" stroke-width="1" fill-rule="evenodd"> <g id="ico/date" fill-rule="nonzero"> <path d="M19,20 L5,20 L5,9 L19,9 M19,4 L18,4 L18,2 L16,2 L16,4 L8,4 L8,2 L6,2 L6,4 L5,4 C3.89,4 3,4.9 3,6 L3,20 C3,21.1045695 3.8954305,22 5,22 L19,22 C20.1045695,22 21,21.1045695 21,20 L21,6 C21,4.8954305 20.1045695,4 19,4 M16.53,12.06 L15.47,11 L10.59,15.88 L8.47,13.76 L7.41,14.82 L10.59,18 L16.53,12.06 Z" id="Shape"/> </g> </g></symbol>
<symbol id="ico-delete" viewBox="0 0 24 24"><g id="1---Elements" stroke="none" stroke-width="1" fill-rule="evenodd"> <g id="ico/delete" fill-rule="nonzero"> <path d="M6,19 C6,20.1 6.9,21 8,21 L16,21 C17.1,21 18,20.1 18,19 L18,7 L6,7 L6,19 Z M8,9 L16,9 L16,19 L8,19 L8,9 Z M15.5,4 L14.5,3 L9.5,3 L8.5,4 L5,4 L5,6 L19,6 L19,4 L15.5,4 Z" id="Shape"/> </g> </g></symbol>
<symbol id="ico-duplicate" viewBox="0 0 24 24"><g id="1---Elements" stroke="none" stroke-width="1" fill-rule="evenodd"> <g id="ico/duplicate" fill-rule="nonzero"> <path d="M4.66666667,6 L3,6 L3,19.3333333 C3,20.25 3.75,21 4.66666667,21 L18,21 L18,19.3333333 L4.66666667,19.3333333 L4.66666667,6 Z M19.3333333,3 L7.66666667,3 C6.75,3 6,3.75 6,4.66666667 L6,16.3333333 C6,17.25 6.75,18 7.66666667,18 L19.3333333,18 C20.25,18 21,17.25 21,16.3333333 L21,4.66666667 C21,3.75 20.25,3 19.3333333,3 Z M19,16 L8,16 L8,5 L19,5 L19,16 Z" id="Shape"/> </g> </g></symbol>
<symbol id="ico-error" viewBox="0 0 24 24"><g id="1---Elements" stroke="none" stroke-width="1" fill-rule="evenodd"> <g id="ico/error" fill-rule="nonzero"> <path d="M1,22 L23,22 L12,3 L1,22 Z M4.47,20 L12,6.99 L19.53,20 L4.47,20 Z M11,17 L13,17 L13,19 L11,19 L11,17 Z M11,11 L13,11 L13,15 L11,15 L11,11 Z" id="Shape"/> </g> </g></symbol>
<symbol id="ico-excla" viewBox="0 0 24 24"><g id="1---Elements" stroke="none" stroke-width="1" fill-rule="evenodd"> <g id="ico/excla" fill-rule="nonzero"> <path d="M12,17 C13.1045695,17 14,17.8954305 14,19 C14,20.1045695 13.1045695,21 12,21 C10.8954305,21 10,20.1045695 10,19 C10,17.8954305 10.8954305,17 12,17 Z M12,3 C13.1,3 14,3.9 14,5 L14,5 L14,13 C14,14.1 13.1,15 12,15 C10.9,15 10,14.1 10,13 L10,13 L10,5 C10,3.9 10.9,3 12,3 Z" id="Path-2"/> </g> </g></symbol>
<symbol id="ico-fav-alt" viewBox="0 0 24 24"><g id="1---Elements" stroke="none" stroke-width="1" fill-rule="evenodd"> <g id="ico/fav-alt" fill-rule="nonzero"> <path d="M12,21.35 L10.55,20.03 C5.4,15.36 2,12.28 2,8.5 C2,5.42 4.42,3 7.5,3 C9.24,3 10.91,3.81 12,5.09 C13.09,3.81 14.76,3 16.5,3 C19.58,3 22,5.42 22,8.5 C22,12.28 18.6,15.36 13.45,20.04 L12,21.35 Z" id="Path"/> </g> </g></symbol>
<symbol id="ico-fav" viewBox="0 0 24 24"><g id="1---Elements" stroke="none" stroke-width="1" fill-rule="evenodd"> <g id="ico/fav" fill-rule="nonzero"> <path d="M16.5,3 C14.76,3 13.09,3.81 12,5.09 C10.91,3.81 9.24,3 7.5,3 C4.42,3 2,5.42 2,8.5 C2,12.28 5.4,15.36 10.55,20.04 L12,21.35 L13.45,20.03 C18.6,15.36 22,12.28 22,8.5 C22,5.42 19.58,3 16.5,3 Z M12.1,18.55 L12,18.65 L11.9,18.55 C7.14,14.24 4,11.39 4,8.5 C4,6.5 5.5,5 7.5,5 C9.04,5 10.54,5.99 11.07,7.36 L12.94,7.36 C13.46,5.99 14.96,5 16.5,5 C18.5,5 20,6.5 20,8.5 C20,11.39 16.86,14.24 12.1,18.55 Z" id="Shape"/> </g> </g></symbol>
<symbol id="ico-feedback-idea" viewBox="0 0 24 24"><g id="1---Elements" stroke="none" stroke-width="1" fill-rule="evenodd"> <g id="ico/feedback-idea" fill-rule="nonzero"> <path d="M19.2727273,11.0909091 L22,11.0909091 L22,12.9090909 L19.2727273,12.9090909 L19.2727273,11.0909091 M2,11.0909091 L4.72727273,11.0909091 L4.72727273,12.9090909 L2,12.9090909 L2,11.0909091 M12.9090909,2 L12.9090909,4.72727273 L11.0909091,4.72727273 L11.0909091,2 L12.9090909,2 M5.56363636,4.27272727 L7.5,6.21818182 L6.20909091,7.5 L4.27272727,5.57272727 L5.56363636,4.27272727 M16.5,6.20909091 L18.4272727,4.27272727 L19.7272727,5.57272727 L17.7909091,7.5 L16.5,6.20909091 M12,6.54545455 C15.0124623,6.54545455 17.4545455,8.98753773 17.4545455,12 C17.4545455,14.0181818 16.3545455,15.7818182 14.7272727,16.7272727 L14.7272727,18.3636364 C14.7272727,18.8657134 14.3202589,19.2727273 13.8181818,19.2727273 L10.1818182,19.2727273 C9.67974114,19.2727273 9.27272727,18.8657134 9.27272727,18.3636364 L9.27272727,16.7272727 C7.64545455,15.7818182 6.54545455,14.0181818 6.54545455,12 C6.54545455,8.98753773 8.98753773,6.54545455 12,6.54545455 M13.8181818,20.1818182 L13.8181818,21.0909091 C13.8181818,21.5929861 13.411168,22 12.9090909,22 L11.0909091,22 C10.588832,22 10.1818182,21.5929861 10.1818182,21.0909091 L10.1818182,20.1818182 L13.8181818,20.1818182 M11.0909091,17.4545455 L12.9090909,17.4545455 L12.9090909,15.5181818 C14.4818182,15.1181818 15.6363636,13.6909091 15.6363636,12 C15.6363636,9.99169182 14.0083082,8.36363636 12,8.36363636 C9.99169182,8.36363636 8.36363636,9.99169182 8.36363636,12 C8.36363636,13.6909091 9.51818182,15.1181818 11.0909091,15.5181818 L11.0909091,17.4545455 Z" id="Shape"/> </g> </g></symbol>
<symbol id="ico-feedback-issue" viewBox="0 0 24 24"><g id="1---Elements" stroke="none" stroke-width="1" fill-rule="evenodd"> <g id="ico/feedback-issue" fill-rule="nonzero"> <path d="M20,8 L17.19,8 C16.74,7.22 16.12,6.55 15.37,6.04 L17,4.41 L15.59,3 L13.42,5.17 C12.96,5.06 12.49,5 12,5 C11.51,5 11.04,5.06 10.59,5.17 L8.41,3 L7,4.41 L8.62,6.04 C7.88,6.55 7.26,7.22 6.81,8 L4,8 L4,10 L6.09,10 C6.04,10.33 6,10.66 6,11 L6,12 L4,12 L4,14 L6,14 L6,15 C6,15.34 6.04,15.67 6.09,16 L4,16 L4,18 L6.81,18 C7.85,19.79 9.78,21 12,21 C14.22,21 16.15,19.79 17.19,18 L20,18 L20,16 L17.91,16 C17.96,15.67 18,15.34 18,15 L18,14 L20,14 L20,12 L18,12 L18,11 C18,10.66 17.96,10.33 17.91,10 L20,10 L20,8 Z M16,12 L16,15 C16,15.22 15.97,15.47 15.93,15.7 L15.83,16.35 L15.46,17 C14.74,18.24 13.42,19 12,19 C10.58,19 9.26,18.23 8.54,17 L8.17,16.36 L8.07,15.71 C8.03,15.48 8,15.23 8,15 L8,11 C8,10.77 8.03,10.52 8.07,10.3 L8.17,9.65 L8.54,9 C8.84,8.48 9.26,8.03 9.75,7.69 L10.32,7.3 L11.06,7.12 C11.37,7.04 11.69,7 12,7 C12.32,7 12.63,7.04 12.95,7.12 L13.63,7.28 L14.24,7.7 C14.74,8.04 15.15,8.48 15.45,9.01 L15.83,9.66 L15.93,10.31 C15.97,10.53 16,10.78 16,11 L16,12 Z M10,14 L14,14 L14,16 L10,16 L10,14 Z M10,10 L14,10 L14,12 L10,12 L10,10 Z" id="Shape"/> </g> </g></symbol>
<symbol id="ico-feedback-rate" viewBox="0 0 24 24"><g id="1---Elements" stroke="none" stroke-width="1" fill-rule="evenodd"> <g id="ico/feedback-rate" fill-rule="nonzero"> <path d="M11.99,2 C6.47,2 2,6.48 2,12 C2,17.52 6.47,22 11.99,22 C17.52,22 22,17.52 22,12 C22,6.48 17.52,2 11.99,2 Z M15.22,17.39 L12,15.45 L8.78,17.39 C8.4,17.62 7.93,17.28 8.03,16.85 L8.88,13.19 L6.05,10.74 C5.72,10.45 5.9,9.9 6.34,9.86 L10.08,9.54 L11.54,6.09 C11.71,5.68 12.29,5.68 12.46,6.09 L13.92,9.53 L17.66,9.85 C18.1,9.89 18.28,10.44 17.94,10.73 L15.11,13.18 L15.96,16.85 C16.06,17.28 15.6,17.62 15.22,17.39 L15.22,17.39 Z" id="Shape"/> </g> </g></symbol>
<symbol id="ico-feedback" viewBox="0 0 24 24"><g id="1---Elements" stroke="none" stroke-width="1" fill-rule="evenodd"> <g id="ico/feedback" fill-rule="nonzero"> <path d="M20,4 L4,4 C2.9,4 2.01,4.9 2.01,6 L2,24 L6,20 L20,20 C21.1,20 22,19.1 22,18 L22,6 C22,4.9 21.1,4 20,4 Z M20,18 L5.17,18 L4.58,18.59 L4,19.17 L4,6 L20,6 L20,18 Z M11,14 L13,14 L13,16 L11,16 L11,14 Z M11,8 L13,8 L13,12 L11,12 L11,8 Z" id="Shape"/> </g> </g></symbol>
<symbol id="ico-gdrive" viewBox="0 0 24 24"><g id="1---Elements" stroke="none" stroke-width="1" fill-rule="evenodd"> <g id="ico/gdrive" fill-rule="nonzero"> <g id="Google_Drive_logo" transform="translate(3.000000, 4.000000)"> <polygon id="Path" points="3.12616585 15.5643707 -8.2529644e-08 10.1490981 5.85969938 3.90628459e-05 8.98586531 5.41464762"/> <polygon id="Path" points="3.12616585 15.5643707 6.25233178 10.1490981 17.9717307 10.1497621 14.8455648 15.5649399"/> <polygon id="Path" points="17.9717402 10.1497232 11.7187443 10.14849 5.859614 1.69328063e-07 12.1121356 1.69328063e-07"/> <polygon id="Path" points="8.98583685 10.149136 6.25230332 10.149136 3.12613739 15.5644086"/> <polygon id="Path" points="11.7180708 10.149136 17.9717307 10.1497052 10.3525372 7.78271713"/> <polygon id="Path" points="7.61910803 7.78210907 8.98577993 5.41464667 5.859614 3.81144664e-05"/> </g> </g> </g></symbol>
<symbol id="ico-github" viewBox="0 0 24 24"><g id="1---Elements" stroke="none" stroke-width="1" fill-rule="evenodd"> <g id="ico/github" fill-rule="nonzero"> <path d="M12,4.4 C7.581722,4.4 4,7.981722 4,12.4 C4,15.936 6.296,18.936 9.472,20 C9.872,20.064 10,19.816 10,19.6 C10,19.416 10,18.912 10,18.248 C7.784,18.728 7.312,17.176 7.312,17.176 C6.944,16.248 6.424,16 6.424,16 C5.696,15.504 6.48,15.52 6.48,15.52 C7.28,15.576 7.704,16.344 7.704,16.344 C8.4,17.56 9.576,17.2 10.032,17.008 C10.104,16.488 10.312,16.136 10.536,15.936 C8.76,15.736 6.896,15.048 6.896,12 C6.896,11.112 7.2,10.4 7.72,9.832 C7.64,9.632 7.36,8.8 7.8,7.72 C7.8,7.72 8.472,7.504 10,8.536 C10.632,8.36 11.32,8.272 12,8.272 C12.68,8.272 13.368,8.36 14,8.536 C15.528,7.504 16.2,7.72 16.2,7.72 C16.64,8.8 16.36,9.632 16.28,9.832 C16.8,10.4 17.104,11.112 17.104,12 C17.104,15.056 15.232,15.728 13.448,15.928 C13.736,16.176 14,16.664 14,17.408 C14,18.48 14,19.344 14,19.6 C14,19.816 14.128,20.072 14.536,20 C17.712,18.928 20,15.936 20,12.4 C20,10.2782681 19.1571453,8.24343678 17.6568542,6.74314575 C16.1565632,5.24285472 14.1217319,4.4 12,4.4 Z" id="Path"/> </g> </g></symbol>
<symbol id="ico-group" viewBox="0 0 24 24"><g id="1---Elements" stroke="none" stroke-width="1" fill-rule="evenodd"> <g id="ico/group" fill-rule="nonzero"> <path d="M16,13 C18.33,13 23,14.17 23,16.5 L23,16.5 L23,19 L17,19 L17,16.5 C17,15.02 16.19,13.89 15.03,13.05 C15.38,13.02 15.71,13 16,13 Z M8,13 C10.33,13 15,14.17 15,16.5 L15,16.5 L15,19 L1,19 L1,16.5 C1,14.17 5.67,13 8,13 Z M8,5 C9.66,5 10.99,6.34 10.99,8 C10.99,9.66 9.66,11 8,11 C6.34,11 5,9.66 5,8 C5,6.34 6.34,5 8,5 Z M16,5 C17.66,5 18.99,6.34 18.99,8 C18.99,9.66 17.66,11 16,11 C14.34,11 13,9.66 13,8 C13,6.34 14.34,5 16,5 Z" id="Path-2"/> </g> </g></symbol>
<symbol id="ico-handle-long" viewBox="0 0 32 32"><g id="1---Elements" stroke="none" stroke-width="1" fill-rule="evenodd"> <g id="grap" transform="translate(12.000000, 5.000000)"> <path d="M0,0 L3,0 L3,3 L0,3 L0,0 Z M3,20 L3,23 L0,23 L0,20 L3,20 Z M3,15 L3,18 L0,18 L0,15 L3,15 Z M3,10 L3,13 L0,13 L0,10 L3,10 Z M3,5 L3,8 L0,8 L0,5 L3,5 Z" id="Rectangle-Copy-10"/> <path d="M5,0 L8,0 L8,3 L5,3 L5,0 Z M8,20 L8,23 L5,23 L5,20 L8,20 Z M8,15 L8,18 L5,18 L5,15 L8,15 Z M8,10 L8,13 L5,13 L5,10 L8,10 Z M8,5 L8,8 L5,8 L5,5 L8,5 Z" id="Rectangle-Copy-11"/> </g> </g></symbol>
<symbol id="ico-handle" viewBox="0 0 24 24"><g id="1---Elements" stroke="none" stroke-width="1" fill-rule="evenodd"> <g id="ico/handle" fill-rule="nonzero"> <path d="M10,17 L10,20 L7,20 L7,17 L10,17 Z M16,17 L16,20 L13,20 L13,17 L16,17 Z M10,10 L10,13 L7,13 L7,10 L10,10 Z M16,10 L16,13 L13,13 L13,10 L16,10 Z M10,3 L10,6 L7,6 L7,3 L10,3 Z M16,3 L16,6 L13,6 L13,3 L16,3 Z" id="Rectangle-Copy-8"/> </g> </g></symbol>
<symbol id="ico-images" viewBox="0 0 24 24"><g id="1---Elements" stroke="none" stroke-width="1" fill-rule="evenodd"> <g id="ico/images" fill-rule="nonzero"> <path d="M19,5 L19,19 L5,19 L5,5 L19,5 M19,3 L5,3 C3.9,3 3,3.9 3,5 L3,19 C3,20.1 3.9,21 5,21 L19,21 C20.1,21 21,20.1 21,19 L21,5 C21,3.9 20.1,3 19,3 Z M14.14,11.86 L11.14,15.73 L9,13.14 L6,17 L18,17 L14.14,11.86 Z" id="Shape"/> </g> </g></symbol>
<symbol id="ico-info" viewBox="0 0 24 24"><g id="1---Elements" stroke="none" stroke-width="1" fill-rule="evenodd"> <g id="ico/info" fill-rule="nonzero"> <path d="M11.99,2 C6.47,2 2,6.48 2,12 C2,17.52 6.47,22 11.99,22 C17.52,22 22,17.52 22,12 C22,6.48 17.52,2 11.99,2 Z M12,20 C7.58,20 4,16.42 4,12 C4,7.58 7.58,4 12,4 C16.42,4 20,7.58 20,12 C20,16.42 16.42,20 12,20 Z M11,15 L13,15 L13,17 L11,17 L11,15 Z M11,7 L13,7 L13,13 L11,13 L11,7 Z" id="Shape"/> </g> </g></symbol>
<symbol id="ico-list" viewBox="0 0 24 24"><g id="1---Elements" stroke="none" stroke-width="1" fill-rule="evenodd"> <g id="ico/list" fill-rule="nonzero"> <path d="M7.33333333,10.8 L7.33333333,13.2 L5,13.2 L5,10.8 L7.33333333,10.8 Z M19,10.8 L19,13.2 L8.88888889,13.2 L8.88888889,10.8 L19,10.8 Z M7.33333333,6 L7.33333333,8.4 L5,8.4 L5,6 L7.33333333,6 Z M19,6 L19,8.4 L8.88888889,8.4 L8.88888889,6 L19,6 Z M7.33333333,15.6 L7.33333333,18 L5,18 L5,15.6 L7.33333333,15.6 Z M19,15.6 L19,18 L8.88888889,18 L8.88888889,15.6 L19,15.6 Z" id="Path-2"/> </g> </g></symbol>
<symbol id="ico-loading" viewBox="0 0 24 24"><g id="1---Elements" stroke="none" stroke-width="1" fill-rule="evenodd"> <g id="ico/loading" fill-rule="nonzero"> <path d="M12,22 C10.6446461,22 9.33321234,21.7335753 8.11107078,21.2221416 C6.91107078,20.7110708 5.8446461,20 4.93321234,19.0889292 C4.02214156,18.1778584 3.28892922,17.1110708 2.8,15.9114338 C2.26678766,14.6667877 2,13.3557169 2,12 C2,10.8446461 2.93321234,9.88892922 4.11107078,9.88892922 C5.28892922,9.88892922 6.22250454,10.8221416 6.22250454,12 C6.22250454,12.7778584 6.37785844,13.5335753 6.66678766,14.2446461 C6.95571688,14.9332123 7.37785844,15.5557169 7.91107078,16.0889292 C8.4446461,16.6225045 9.06678766,17.0446461 9.75571688,17.3335753 C10.4667877,17.6446461 11.2221416,17.7778584 12,17.7778584 C12.7778584,17.7778584 13.5335753,17.6221416 14.2446461,17.3335753 C14.9335753,17.0446461 15.5553539,16.6225045 16.0889292,16.0889292 C16.6221416,15.5557169 17.0442831,14.9332123 17.3332123,14.2446461 C17.6446461,13.5335753 17.7778584,12.7778584 17.7778584,12 C17.7778584,11.2225045 17.6221416,10.4667877 17.3332123,9.75571688 C17.0442831,9.06678766 16.6221416,8.44428312 16.0889292,7.91143376 C15.5553539,7.37785844 14.9335753,6.95571688 14.2446461,6.66678766 C13.5335753,6.3553539 12.7778584,6.22214156 12,6.22214156 C10.8442831,6.22214156 9.88892922,5.28892922 9.88892922,4.11107078 C9.88892922,2.93357532 10.8442831,2 12,2 C13.3557169,2 14.6667877,2.26678766 15.8889292,2.77785844 C17.0889292,3.28892922 18.1553539,4 19.0667877,4.91107078 C19.9778584,5.82250454 20.7110708,6.88892922 21.2,8.08892922 C21.7332123,9.33357532 22,10.6446461 22,12 C22,13.3557169 21.7332123,14.6667877 21.2221416,15.8889292 C20.7110708,17.0889292 20,18.1557169 19.0889292,19.0667877 C18.1778584,19.9778584 17.1110708,20.7110708 15.9110708,21.2 C14.6667877,21.7335753 13.3557169,22 12,22" id="Fill-1"/> </g> </g></symbol>
<symbol id="ico-menu" viewBox="0 0 24 24"><g id="1---Elements" stroke="none" stroke-width="1" fill-rule="evenodd"> <g id="ico/menu" fill-rule="nonzero"> <path d="M3,6 L21,6 L21,8 L3,8 L3,6 L3,6 Z M3,11 L21,11 L21,13 L3,13 L3,11 L3,11 Z M3,16 L21,16 L21,18 L3,18 L3,16 Z" id="Shape"/> </g> </g></symbol>
<symbol id="ico-more" viewBox="0 0 24 24"><g id="1---Elements" stroke="none" stroke-width="1" fill-rule="evenodd"> <g id="ico/more" fill-rule="nonzero"> <path d="M12.5,7 C13.875,7 15,5.875 15,4.5 C15,3.125 13.875,2 12.5,2 C11.125,2 10,3.125 10,4.5 C10,5.875 11.125,7 12.5,7 Z M12.5,9.5 C11.125,9.5 10,10.625 10,12 C10,13.375 11.125,14.5 12.5,14.5 C13.875,14.5 15,13.375 15,12 C15,10.625 13.875,9.5 12.5,9.5 Z M12.5,17 C11.125,17 10,18.125 10,19.5 C10,20.875 11.125,22 12.5,22 C13.875,22 15,20.875 15,19.5 C15,18.125 13.875,17 12.5,17 Z" id="Shape" transform="translate(12.500000, 12.000000) rotate(-180.000000) translate(-12.500000, -12.000000) "/> </g> </g></symbol>
<symbol id="ico-personal" viewBox="0 0 24 24"><g id="1---Elements" stroke="none" stroke-width="1" fill-rule="evenodd"> <g id="ico/personal" fill-rule="nonzero"> <path d="M12.3950027,4 C15.0682326,4 17.2353137,6.16708105 17.2353137,8.840311 C17.2353137,10.378452 16.5178584,11.7490223 15.3993443,12.6356257 C17.9907099,13.5003805 19.4922081,15.651674 19.7862613,18.9758132 C19.8320635,19.493586 19.4494556,19.9504538 18.9316828,19.996256 C18.41391,20.0420581 17.9570422,19.6594503 17.91124,19.1416775 C17.6051176,15.6811008 15.8809544,14.0839812 12.4622292,14.0839812 C9.03573734,14.0839812 7.26248691,15.6927033 6.87666199,19.1627507 C6.81922142,19.6793619 6.35386053,20.0515932 5.83724934,19.9941526 C5.32063814,19.9367121 4.9484068,19.4713512 5.00584736,18.95474 C5.37023887,15.6774613 6.88083105,13.5462602 9.42911054,12.6642561 C8.28834562,11.7797732 7.55469167,10.3957191 7.55469167,8.840311 C7.55469167,6.16708105 9.72177272,4 12.3950027,4 Z M12.3950027,5.88234317 C10.7613621,5.88234317 9.43703484,7.20667047 9.43703484,8.840311 C9.43703484,10.4739515 10.7613621,11.7982788 12.3950027,11.7982788 C14.0286432,11.7982788 15.3529705,10.4739515 15.3529705,8.840311 C15.3529705,7.20667047 14.0286432,5.88234317 12.3950027,5.88234317 Z" id="Line-2"/> </g> </g></symbol>
<symbol id="ico-play" viewBox="0 0 24 24"><g id="1---Elements" stroke="none" stroke-width="1" fill-rule="evenodd"> <g id="ico/play" fill-rule="nonzero"> <path d="M7,7.00140453 L7,17.3614045 C7,18.1514045 7.87,18.6314045 8.54,18.2014045 L16.68,13.0214045 C17.3,12.6314045 17.3,11.7314045 16.68,11.3314045 L8.54,6.16140453 C7.87,5.73140453 7,6.21140453 7,7.00140453 Z" id="Path"/> </g> </g></symbol>
<symbol id="ico-plus" viewBox="0 0 24 24"><g id="1---Elements" stroke="none" stroke-width="1" fill-rule="evenodd"> <g id="ico/plus" fill-rule="nonzero"> <path d="M13,3 L13,11 L21,11 L21,13 L13,13 L13,21 L11,21 L11,12.999 L3,13 L3,11 L11,10.999 L11,3 L13,3 Z" id="Rectangle-Copy-2"/> </g> </g></symbol>
<symbol id="ico-private-github" viewBox="0 0 24 24"><g id="1---Elements" stroke="none" stroke-width="1" fill-rule="evenodd"> <g id="ico/private-github" fill-rule="nonzero"> <path d="M19.9784972,12.9917555 C19.7395818,16.2667821 17.5332084,18.9883478 14.536,20 C14.128,20.072 14,19.816 14,19.6 L14,19.6 L14,17.408 C14,16.664 13.736,16.176 13.448,15.928 C15.0180162,15.7519892 16.6561879,15.2104169 17.0265846,13.000069 L19.8571429,13 C19.8952381,13 19.9333333,12.9973333 19.9712593,12.9921778 Z M12,4.4 C12.7305597,4.4 13.4508167,4.49992707 14.1424973,4.69221203 L14.1428571,5.8 C13.5714286,5.8 13,6.4 13,7 L13,7 L13.0001009,8.3356776 C12.6698586,8.29322587 12.3339645,8.272 12,8.272 C11.32,8.272 10.632,8.36 10,8.536 C8.472,7.504 7.8,7.72 7.8,7.72 C7.36,8.8 7.64,9.632 7.72,9.832 C7.2,10.4 6.896,11.112 6.896,12 C6.896,15.048 8.76,15.736 10.536,15.936 C10.312,16.136 10.104,16.488 10.032,17.008 C9.576,17.2 8.4,17.56 7.704,16.344 C7.704,16.344 7.28,15.576 6.48,15.52 C6.48,15.52 5.696,15.504 6.424,16 C6.424,16 6.944,16.248 7.312,17.176 C7.312,17.176 7.784,18.728 10,18.248 L10,18.248 L10,19.6 C10,19.816 9.872,20.064 9.472,20 C6.296,18.936 4,15.936 4,12.4 C4,7.981722 7.581722,4.4 12,4.4 Z" id="Path-2"/> <path d="M20,6 C20.5,6 21,6.5 21,7 L21,11 C21,11.5 20.5,12 20,12 L15,12 C14.5,12 14,11.5 14,11 L14,7 C14,6.5 14.5,6 15,6 L15,4.5 C15,3.1 16.1,2 17.5,2 C18.9,2 20,3.1 20,4.5 L20,6 M19,6 L19,4.5 C19,3.7 18.3,3 17.5,3 C16.7,3 16,3.7 16,4.5 L16,6 L19,6" id="Shape"/> </g> </g></symbol>
<symbol id="ico-queue" viewBox="0 0 24 24"><g id="1---Elements" stroke="none" stroke-width="1" fill-rule="evenodd"> <g id="ico/queue" fill-rule="nonzero"> <path d="M7,6 L7,19 L5,19 L5,6 L7,6 Z M12,6 L12,19 L10,19 L10,6 L12,6 Z M16.6591529,6 L20,12.4687253 L16.6591529,19 L15,19 L15,6 L16.6591529,6 Z" id="Rectangle-2"/> </g> </g></symbol>
<symbol id="ico-remove" viewBox="0 0 24 24"><g id="1---Elements" stroke="none" stroke-width="1" fill-rule="evenodd"> <g id="ico/remove" fill-rule="nonzero"> <polygon id="Shape" points="18 7.20857143 16.7914286 6 12 10.7914286 7.20857143 6 6 7.20857143 10.7914286 12 6 16.7914286 7.20857143 18 12 13.2085714 16.7914286 18 18 16.7914286 13.2085714 12"/> </g> </g></symbol>
<symbol id="ico-search" viewBox="0 0 24 24"><g id="1---Elements" stroke="none" stroke-width="1" fill-rule="evenodd"> <g id="ico/search" fill-rule="nonzero"> <path d="M15.4316354,14.0589812 L14.7238606,14.0589812 L14.4664879,13.8230563 C14.9097431,13.2940099 15.2600523,12.7006288 15.5174263,12.0428954 C15.7748002,11.385162 15.9034853,10.6845435 15.9034853,9.94101877 C15.9034853,9.12600129 15.7462035,8.35746563 15.4316354,7.63538874 C15.1170672,6.91331185 14.6916917,6.28418499 14.155496,5.74798928 C13.6193003,5.21179357 12.9901734,4.78641802 12.2680965,4.47184987 C11.5460196,4.15728172 10.7703348,4 9.94101877,4 C9.12600129,4 8.35746563,4.15728172 7.63538874,4.47184987 C6.91331185,4.78641802 6.28418499,5.21179357 5.74798928,5.74798928 C5.21179357,6.28418499 4.78641802,6.91331185 4.47184987,7.63538874 C4.15728172,8.35746563 4,9.12600129 4,9.94101877 C4,10.7703348 4.15728172,11.5460196 4.47184987,12.2680965 C4.78641802,12.9901734 5.21179357,13.6193003 5.74798928,14.155496 C6.28418499,14.6916917 6.91331185,15.1170672 7.63538874,15.4316354 C8.35746563,15.7462035 9.12600129,15.9034853 9.94101877,15.9034853 C10.6845435,15.9034853 11.385162,15.7748002 12.0428954,15.5174263 C12.7006288,15.2600523 13.2940099,14.9097431 13.8230563,14.4664879 L14.0589812,14.7238606 L14.0589812,15.4316354 L18.6487936,20 L20,18.6487936 L15.4316354,14.0589812 Z M9.94101877,14.0589812 C8.81143314,14.0589812 7.84272075,13.6586278 7.03485255,12.8579088 C6.22698434,12.0571899 5.8230563,11.0849029 5.8230563,9.94101877 C5.8230563,8.81143314 6.22698434,7.84272075 7.03485255,7.03485255 C7.84272075,6.22698434 8.81143314,5.8230563 9.94101877,5.8230563 C11.0849029,5.8230563 12.0571899,6.22698434 12.8579088,7.03485255 C13.6586278,7.84272075 14.0589812,8.81143314 14.0589812,9.94101877 C14.0589812,11.0849029 13.6586278,12.0571899 12.8579088,12.8579088 C12.0571899,13.6586278 11.0849029,14.0589812 9.94101877,14.0589812 L9.94101877,14.0589812 Z" id="Shape"/> </g> </g></symbol>
<symbol id="ico-settings" viewBox="0 0 24 24"><g id="1---Elements" stroke="none" stroke-width="1" fill-rule="evenodd"> <g id="ico/settings" fill-rule="nonzero"> <path d="M11.7293316,15.5 C9.79633498,15.5 8.2293316,13.9329966 8.2293316,12 C8.2293316,10.0670034 9.79633498,8.5 11.7293316,8.5 C13.6623282,8.5 15.2293316,10.0670034 15.2293316,12 C15.2293316,13.9329966 13.6623282,15.5 11.7293316,15.5 L11.7293316,15.5 Z M19.1593316,12.97 C19.1993316,12.65 19.2293316,12.33 19.2293316,12 C19.2293316,11.67 19.1993316,11.34 19.1593316,11 L21.2693316,9.37 C21.4593316,9.22 21.5093316,8.95 21.3893316,8.73 L19.3893316,5.27 C19.2693316,5.05 18.9993316,4.96 18.7793316,5.05 L16.2893316,6.05 C15.7693316,5.66 15.2293316,5.32 14.5993316,5.07 L14.2293316,2.42 C14.1893316,2.18 13.9793316,2 13.7293316,2 L9.7293316,2 C9.4793316,2 9.2693316,2.18 9.2293316,2.42 L8.8593316,5.07 C8.2293316,5.32 7.6893316,5.66 7.1693316,6.05 L4.6793316,5.05 C4.4593316,4.96 4.1893316,5.05 4.0693316,5.27 L2.0693316,8.73 C1.9393316,8.95 1.9993316,9.22 2.1893316,9.37 L4.2993316,11 C4.2593316,11.34 4.2293316,11.67 4.2293316,12 C4.2293316,12.33 4.2593316,12.65 4.2993316,12.97 L2.1893316,14.63 C1.9993316,14.78 1.9393316,15.05 2.0693316,15.27 L4.0693316,18.73 C4.1893316,18.95 4.4593316,19.03 4.6793316,18.95 L7.1693316,17.94 C7.6893316,18.34 8.2293316,18.68 8.8593316,18.93 L9.2293316,21.58 C9.2693316,21.82 9.4793316,22 9.7293316,22 L13.7293316,22 C13.9793316,22 14.1893316,21.82 14.2293316,21.58 L14.5993316,18.93 C15.2293316,18.67 15.7693316,18.34 16.2893316,17.94 L18.7793316,18.95 C18.9993316,19.03 19.2693316,18.95 19.3893316,18.73 L21.3893316,15.27 C21.5093316,15.05 21.4593316,14.78 21.2693316,14.63 L19.1593316,12.97 Z" id="Shape"/> </g> </g></symbol>
<symbol id="ico-star-alt" viewBox="0 0 24 24"><g id="1---Elements" stroke="none" stroke-width="1" fill-rule="evenodd"> <g id="ico/star-alt" fill-rule="nonzero"> <path d="M14.81,8.62 L12.92,4.17 C12.58,3.36 11.42,3.36 11.08,4.17 L9.19,8.63 L4.36,9.04 C3.48,9.11 3.12,10.21 3.79,10.79 L7.46,13.97 L6.36,18.69 C6.16,19.55 7.09,20.23 7.85,19.77 L12,17.27 L16.15,19.78 C16.91,20.24 17.84,19.56 17.64,18.7 L16.54,13.97 L20.21,10.79 C20.88,10.21 20.53,9.11 19.65,9.04 L14.81,8.62 Z" id="Shape"/> </g> </g></symbol>
<symbol id="ico-star" viewBox="0 0 24 24"><g id="1---Elements" stroke="none" stroke-width="1" fill-rule="evenodd"> <g id="ico/star" fill-rule="nonzero"> <path d="M19.65,9.04 L14.81,8.62 L12.92,4.17 C12.58,3.36 11.42,3.36 11.08,4.17 L9.19,8.63 L4.36,9.04 C3.48,9.11 3.12,10.21 3.79,10.79 L7.46,13.97 L6.36,18.69 C6.16,19.55 7.09,20.23 7.85,19.77 L12,17.27 L16.15,19.78 C16.91,20.24 17.84,19.56 17.64,18.7 L16.54,13.97 L20.21,10.79 C20.88,10.21 20.53,9.11 19.65,9.04 L19.65,9.04 Z M12,15.4 L8.24,17.67 L9.24,13.39 L5.92,10.51 L10.3,10.13 L12,6.1 L13.71,10.14 L18.09,10.52 L14.77,13.4 L15.77,17.68 L12,15.4 Z" id="Shape"/> </g> </g></symbol>
<symbol id="ico-sync" viewBox="0 0 24 24"><g id="1---Elements" stroke="none" stroke-width="1" fill-rule="evenodd"> <g id="ico/sync" fill-rule="nonzero"> <g id="baseline-sync-24px" transform="translate(12.000000, 12.000000) scale(1, -1) translate(-12.000000, -12.000000) translate(4.000000, 1.000000)"> <path d="M8,3 L8,0 L4,4 L8,8 L8,5 C11.31,5 14,7.69 14,11 C14,12.01 13.75,12.97 13.3,13.8 L14.76,15.26 C15.54,14.03 16,12.57 16,11 C16,6.58 12.42,3 8,3 Z M8,17 C4.69,17 2,14.31 2,11 C2,9.99 2.25,9.03 2.7,8.2 L1.24,6.74 C0.46,7.97 0,9.43 0,11 C0,15.42 3.58,19 8,19 L8,22 L12,18 L8,14 L8,17 Z" id="Shape"/> </g> </g> </g></symbol>
<symbol id="ico-t-down" viewBox="0 0 16 16"><g id="1---Elements" stroke="none" stroke-width="1" fill-rule="evenodd"> <g id="ico/t-down" fill-rule="nonzero"> <polygon id="Shape" points="14 6 8 12 2 6"/> </g> </g></symbol>
<symbol id="ico-t-left" viewBox="0 0 16 16"><g id="1---Elements" stroke="none" stroke-width="1" fill-rule="evenodd"> <g id="ico/t-left" fill-rule="nonzero"> <polygon id="Shape" transform="translate(8.000000, 8.000000) rotate(-270.000000) translate(-8.000000, -8.000000) " points="14 5 8 11 2 5"/> </g> </g></symbol>
<symbol id="ico-t-right" viewBox="0 0 16 16"><g id="1---Elements" stroke="none" stroke-width="1" fill-rule="evenodd"> <g id="ico/t-right" fill-rule="nonzero"> <polygon id="Shape" transform="translate(8.000000, 8.000000) rotate(-90.000000) translate(-8.000000, -8.000000) " points="14 5 8 11 2 5"/> </g> </g></symbol>
<symbol id="ico-t-up" viewBox="0 0 16 16"><g id="1---Elements" stroke="none" stroke-width="1" fill-rule="evenodd"> <g id="ico/t-up" fill-rule="nonzero"> <polygon id="Shape" transform="translate(8.000000, 8.000000) rotate(-180.000000) translate(-8.000000, -8.000000) " points="14 5 8 11 2 5"/> </g> </g></symbol>
<symbol id="ico-tick-off" viewBox="0 0 24 24"><g id="1---Elements" stroke="none" stroke-width="1" fill-rule="evenodd"> <g id="ico/tick-off"/> </g></symbol>
<symbol id="ico-tick-on" viewBox="0 0 24 24"><g id="1---Elements" stroke="none" stroke-width="1" fill-rule="evenodd"> <g id="ico/tick-on" fill-rule="nonzero"> <g id="ico/check" transform="translate(5.000000, 5.000000)"> <polygon id="Shape" points="5.09090909 9.63636364 1.27272727 5.81818182 0 7.09090909 5.09090909 12.1818182 16 1.27272727 14.7272727 0"/> </g> </g> </g></symbol>
<symbol id="ico-user" viewBox="0 0 24 24"><g id="1---Elements" stroke="none" stroke-width="1" fill-rule="evenodd"> <g id="ico/user" fill-rule="nonzero"> <path d="M12,13 C14.6628571,13 20,14.365 20,17.0833333 L20,17.0833333 L20,20 L4,20 L4,17.0833333 C4,14.365 9.33714286,13 12,13 Z M11.5058431,4 C13.4457429,4 15,5.56333333 15,7.5 C15,9.43666667 13.4457429,11 11.5058431,11 C9.56594324,11 8,9.43666667 8,7.5 C8,5.56333333 9.56594324,4 11.5058431,4 Z" id="Path-2"/> </g> </g></symbol>
<symbol id="ico-videos" viewBox="0 0 24 24"><g id="1---Elements" stroke="none" stroke-width="1" fill-rule="evenodd"> <g id="ico/videos" fill-rule="nonzero"> <path d="M15,8 L15,16 L5,16 L5,8 L15,8 M16,6 L4,6 C3.45,6 3,6.45 3,7 L3,17 C3,17.55 3.45,18 4,18 L16,18 C16.55,18 17,17.55 17,17 L17,13.5 L21,17.5 L21,6.5 L17,10.5 L17,7 C17,6.45 16.55,6 16,6 Z" id="Shape"/> </g> </g></symbol>
<symbol id="ico-wks" viewBox="0 0 24 24"><g id="1---Elements" stroke="none" stroke-width="1" fill-rule="evenodd"> <g id="ico/wks" fill-rule="nonzero"> <path d="M4,10 L11,13.3107963 L11,20 L4,16.6892037 L4,10 Z M20,10 L20,16.6892037 L13,20 L13,13.3107963 L20,10 Z M12,5 L19,8.57291667 L12,12 L5,8.57291667 L12,5 Z" id="Rectangle-Copy-3"/> </g> </g></symbol>
<symbol id="n-ico-big-plus-white" viewBox="0 0 24 24"><g id="1---Elements" stroke="none" stroke-width="1" fill-rule="evenodd"> <g id="n-ico/big-plus/white"> <rect id="Rectangle-4" x="11" y="0" width="1" height="24"/> <rect id="Rectangle-4" transform="translate(12.000000, 11.500000) rotate(-270.000000) translate(-12.000000, -11.500000) " x="11.5" y="-0.5" width="1" height="24"/> </g> </g></symbol>
<symbol id="n-ico-handle-white" viewBox="0 0 24 24"><g id="1---Elements" stroke="none" stroke-width="1" fill-rule="evenodd"> <g id="n-ico/handle/white"> <path d="M10,17 L10,20 L7,20 L7,17 L10,17 Z M16,17 L16,20 L13,20 L13,17 L16,17 Z M10,10 L10,13 L7,13 L7,10 L10,10 Z M16,10 L16,13 L13,13 L13,10 L16,10 Z M10,3 L10,6 L7,6 L7,3 L10,3 Z M16,3 L16,6 L13,6 L13,3 L16,3 Z" id="Rectangle-Copy-8"/> </g> </g></symbol>
</svg>